{"accessors":[{"bufferView":2,"componentType":5126,"count":682,"max":[3.2000598907470703,3.1523499488830566,10.01453971862793],"min":[-3.4997000694274902,-3.4670801162719727,-8.047019958496094],"type":"VEC3"},{"bufferView":2,"byteOffset":8184,"componentType":5126,"count":682,"max":[0.9996528625488281,0.9992204904556274,0.999998152256012],"min":[-0.9994977712631226,-0.9970200657844543,-0.9999979138374329],"type":"VEC3"},{"bufferView":3,"componentType":5126,"count":682,"max":[0.9997912049293518,0.9978072643280029,0.7666276693344116,1],"min":[-0.9995192885398865,-0.9933671951293945,-0.7468881011009216,-1],"type":"VEC4"},{"bufferView":1,"componentType":5126,"count":682,"max":[0.9568899869918823,0.8750799894332886],"min":[0.03920000046491623,0.05482000112533569],"type":"VEC2"},{"bufferView":1,"byteOffset":5456,"componentType":5126,"count":682,"max":[0.9568899869918823,0.8750799894332886],"min":[0.03920000046491623,0.05482000112533569],"type":"VEC2"},{"bufferView":1,"byteOffset":10912,"componentType":5126,"count":682,"max":[0.9568899869918823,0.8750799894332886],"min":[0.03920000046491623,0.05482000112533569],"type":"VEC2"},{"bufferView":1,"byteOffset":16368,"componentType":5126,"count":682,"max":[0.9568899869918823,0.8750799894332886],"min":[0.03920000046491623,0.05482000112533569],"type":"VEC2"},{"bufferView":0,"componentType":5125,"count":3609,"type":"SCALAR"},{"bufferView":2,"byteOffset":16368,"componentType":5126,"count":24,"max":[1,1,1],"min":[-1,-1,-1],"type":"VEC3"},{"bufferView":2,"byteOffset":16656,"componentType":5126,"count":24,"max":[1,1,1],"min":[-1,-1,-1],"type":"VEC3"},{"bufferView":1,"byteOffset":21824,"componentType":5126,"count":24,"max":[0,0],"min":[0,0],"type":"VEC2"},{"bufferView":0,"byteOffset":14436,"componentType":5125,"count":36,"type":"SCALAR"}],"asset":{"extras":{"author":"phungthenam (https://sketchfab.com/phungthenam)","license":"CC-BY-4.0 (http://creativecommons.org/licenses/by/4.0/)","source":"https://sketchfab.com/3d-models/gold-cup-world-cup-4f5c0bf6b17e42bea511a4b6cfcbe4f8","title":"gold cup world cup"},"generator":"Sketchfab-12.68.0","version":"2.0"},"bufferViews":[{"buffer":0,"byteLength":14580,"name":"floatBufferViews","target":34963},{"buffer":0,"byteLength":22016,"byteOffset":14580,"byteStride":8,"name":"floatBufferViews","target":34962},{"buffer":0,"byteLength":16944,"byteOffset":36596,"byteStride":12,"name":"floatBufferViews","target":34962},{"buffer":0,"byteLength":10912,"byteOffset":53540,"byteStride":16,"name":"floatBufferViews","target":34962}],"buffers":[{"byteLength":64452,"uri":"data:application/octet-stream;base64,"}],"images":[{"uri":"data:application/octet-stream;base64,"},{"uri":"data:application/octet-stream;base64,"},{"uri":"data:application/octet-stream;base64,"}],"materials":[{"doubleSided":true,"name":"Root","pbrMetallicRoughness":{"baseColorTexture":{"index":0},"roughnessFactor":0.6}},{"doubleSided":true,"name":"Material.002","normalTexture":{"index":2,"scale":0.7334222561},"occlusionTexture":{"index":1},"pbrMetallicRoughness":{"baseColorTexture":{"index":0},"metallicRoughnessTexture":{"index":1}}}],"meshes":[{"name":"Plane_0","primitives":[{"attributes":{"NORMAL":1,"POSITION":0,"TANGENT":2,"TEXCOORD_0":3,"TEXCOORD_1":4,"TEXCOORD_2":5,"TEXCOORD_3":6},"indices":7,"material":1,"mode":4}]},{"name":"Cube_0","primitives":[{"attributes":{"NORMAL":9,"POSITION":8,"TEXCOORD_0":10},"indices":11,"material":0,"mode":4}]}],"nodes":[{"children":[1],"matrix":[1,0,0,0,0,2.220446049250313e-16,-1,0,0,1,2.220446049250313e-16,0,0,0,0,1],"name":"Sketchfab_model"},{"children":[2,4,6],"name":"Root"},{"children":[3],"matrix":[0.26578,0,0,0,0,0.26578,0,0,0,0,0.26578,0,0.11551000000000002,0.035730000000000005,-1.7246700000000001,1],"name":"Plane"},{"mesh":0,"name":"Plane_0"},{"children":[5],"matrix":[0.19183000000000003,0,0,0,0,0.19183000000000003,0,0,0,0,0.19183000000000003,0,0.07177000000000001,0,-1.6923700000000002,1],"name":"Cube"},{"mesh":1,"name":"Cube_0"},{"children":[7],"matrix":[0.99419,-0.04686000000000001,-0.09685000000000002,0,0.019950000000000006,0.9648300000000001,-0.26211,0,0.10573000000000002,0.25865,0.9601700000000001,0,0.7869700000000001,5.114819999999999,13.08074,1],"name":"Sun"},{"name":"Sun"}],"samplers":[{"magFilter":9729,"minFilter":9987,"wrapS":10497,"wrapT":10497}],"scene":0,"scenes":[{"name":"Sketchfab_Scene","nodes":[0]}],"textures":[{"sampler":0,"source":0},{"sampler":0,"source":1},{"sampler":0,"source":2}]}